<?xml version="1.0" encoding="UTF-8"?>
<!--
  Gamepad illustration (CC0 1.0 Universal) — No rights reserved.
  You can copy, modify, distribute and perform the work, even for commercial purposes, all without asking permission.
-->
<svg xmlns="http://www.w3.org/2000/svg" viewBox="0 0 1200 800" width="1200" height="800">
  <defs>
    <linearGradient id="bg" x1="0" y1="0" x2="1" y2="1">
      <stop offset="0%" stop-color="#1f2937"/>
      <stop offset="100%" stop-color="#111827"/>
    </linearGradient>
    <radialGradient id="glow" cx="50%" cy="45%" r="60%">
      <stop offset="0%" stop-color="#6366f1" stop-opacity="0.25"/>
      <stop offset="100%" stop-color="#6366f1" stop-opacity="0"/>
    </radialGradient>
    <filter id="shadow" x="-20%" y="-20%" width="140%" height="140%">
      <feDropShadow dx="0" dy="6" stdDeviation="16" flood-color="#000" flood-opacity="0.35"/>
    </filter>
  </defs>

  <!-- Background -->
  <rect width="1200" height="800" fill="url(#bg)"/>
  <rect width="1200" height="800" fill="url(#glow)"/>

  <!-- Abstract pattern -->
  <g opacity="0.07" fill="#fff">
    <circle cx="200" cy="160" r="60"/>
    <circle cx="1040" cy="640" r="60"/>
    <circle cx="980" cy="180" r="40"/>
    <circle cx="240" cy="620" r="40"/>
  </g>

  <!-- Gamepad -->
  <g transform="translate(200,190)" filter="url(#shadow)">
    <!-- Body -->
    <path d="M180,320c-40,0-76-27-86-65l-14-53c-18-66,30-132,98-136l120-7c20-1,39,7,52,22l30,35c9,10,23,16,37,16h156c19,0,37,8,49,22l56,65c22,26,26,63,10,94l-10,19c-16,31-49,51-85,51-24,0-47-9-64-25l-27-25c-11-10-26-16-41-16H422c-15,0-30,6-41,16l-27,25c-17,16-40,25-64,25z" fill="#e5e7eb"/>
    <!-- Grip shading -->
    <path d="M180,320c-40,0-76-27-86-65l-14-53c-9-33,2-66,26-89l13,60c8,39,46,67,95,67h36c-8,20-36,80-70,80z" fill="#d1d5db"/>
    <path d="M760,320c40,0,76-27,86-65l10-37c6,28,1,58-14,84l-10,19c-16,31-49,51-85,51-24,0-47-9-64-25l-12-11c21-1,67-13,89-16z" fill="#d1d5db"/>

    <!-- D-pad -->
    <g transform="translate(250,190)" fill="#111827">
      <rect x="-22" y="-60" rx="8" ry="8" width="44" height="120"/>
      <rect x="-60" y="-22" rx="8" ry="8" width="120" height="44"/>
      <circle cx="0" cy="0" r="10" fill="#0b1220"/>
    </g>

    <!-- ABXY buttons -->
    <g transform="translate(610,190)">
      <circle cx="0" cy="-34" r="22" fill="#ef4444"/>
      <circle cx="34" cy="0" r="22" fill="#f59e0b"/>
      <circle cx="0" cy="34" r="22" fill="#10b981"/>
      <circle cx="-34" cy="0" r="22" fill="#3b82f6"/>
    </g>

    <!-- Sticks -->
    <g fill="#111827" opacity="0.95">
      <circle cx="380" cy="250" r="34"/>
      <circle cx="500" cy="250" r="34"/>
    </g>

    <!-- Indicators -->
    <g opacity="0.35" fill="#0ea5e9">
      <circle cx="440" cy="140" r="8"/>
      <circle cx="470" cy="140" r="8"/>
      <circle cx="500" cy="140" r="8"/>
    </g>
  </g>
</svg>


