<svg width="24" height="26" viewBox="0 0 24 26" fill="none" xmlns="http://www.w3.org/2000/svg">
<path d="M6.66316 11.1526C6.17895 11.1526 5.81558 10.9371 5.57305 10.5059C5.33137 10.0739 5.33684 9.64737 5.58947 9.22632L10.2947 1.55264C10.5474 1.15264 10.9053 0.952637 11.3684 0.952637C11.8316 0.952637 12.1895 1.15264 12.4421 1.55264L17.1474 9.22632C17.4 9.64737 17.4051 10.0739 17.1625 10.5059C16.9208 10.9371 16.5579 11.1526 16.0737 11.1526H6.66316ZM18.3158 25.0474C16.7368 25.0474 15.3945 24.495 14.2888 23.3901C13.184 22.2844 12.6316 20.9421 12.6316 19.3632C12.6316 17.7842 13.184 16.4419 14.2888 15.3362C15.3945 14.2314 16.7368 13.679 18.3158 13.679C19.8947 13.679 21.2371 14.2314 22.3427 15.3362C23.4476 16.4419 24 17.7842 24 19.3632C24 20.9421 23.4476 22.2844 22.3427 23.3901C21.2371 24.495 19.8947 25.0474 18.3158 25.0474ZM1.26316 24.4158C0.905263 24.4158 0.605474 24.2945 0.36379 24.052C0.121263 23.8103 0 23.5105 0 23.1526V15.5737C0 15.2158 0.121263 14.9156 0.36379 14.6731C0.605474 14.4314 0.905263 14.3105 1.26316 14.3105H8.8421C9.2 14.3105 9.50021 14.4314 9.74274 14.6731C9.98442 14.9156 10.1053 15.2158 10.1053 15.5737V23.1526C10.1053 23.5105 9.98442 23.8103 9.74274 24.052C9.50021 24.2945 9.2 24.4158 8.8421 24.4158H1.26316Z" fill="#29A5FF"/>
</svg>
